<svg width="418" height="214" viewBox="0 0 418 214" fill="none" xmlns="http://www.w3.org/2000/svg">
<g clip-path="url(#clip0_6_3292)">
<g filter="url(#filter0_f_6_3292)">
<rect width="418" height="214" fill="#E6E6FF"/>
</g>
<path d="M166.95 119.653H248.209C250.941 119.653 253.159 121.871 253.159 124.603C253.159 127.335 250.941 129.553 248.209 129.553H166.95C164.218 129.553 162 127.335 162 124.603C162 121.871 164.218 119.653 166.95 119.653Z" fill="#395BD3"/>
<path d="M249.449 112.697L177.827 74.3137C175.417 73.0222 174.51 70.0221 175.802 67.6127C177.093 65.2033 180.094 64.2966 182.503 65.5881L254.125 103.971C256.535 105.263 257.442 108.263 256.15 110.672C254.859 113.082 251.858 113.989 249.449 112.697Z" fill="#395BD3"/>
<path d="M234.387 97.9003L232.887 87.293C232.497 84.5371 230.861 82.0997 228.51 80.772C228.453 80.7389 228.394 80.7071 228.335 80.6753L216.181 74.1613C216.121 74.1295 216.062 74.0984 216.002 74.0685C213.595 72.8457 210.659 72.8336 208.149 74.0348L198.485 78.6596L195.72 72.8825L205.383 68.2577C207.485 67.2518 209.82 66.7246 212.136 66.7329C214.487 66.7418 216.827 67.3033 218.902 68.3576C219.004 68.4091 219.106 68.4625 219.206 68.5165L231.359 75.0293C231.46 75.0827 231.559 75.138 231.659 75.1946C233.686 76.3392 235.45 77.9766 236.759 79.9295C238.049 81.853 238.903 84.0888 239.229 86.3964L240.729 97.0037L234.387 97.9003Z" fill="#395BD3"/>
<path d="M169.747 129.559V194.055C169.747 200.223 174.747 205.224 180.915 205.224H234.243C240.411 205.224 245.411 200.223 245.411 194.055V129.559H169.747ZM185.91 193.233H181.755V141.549H185.91V193.233ZM201.741 193.233H197.586V141.549H201.741V193.233ZM217.572 193.233H213.418V141.549H217.572V193.233ZM233.403 193.233H229.248V141.549H233.403V193.233Z" fill="#395BD3"/>
<path d="M172.722 99.7643C173.056 99.7096 173.343 99.6829 173.742 99.7191C173.773 99.7217 173.802 99.7242 173.833 99.7268C174.008 99.7414 174.19 99.7566 174.369 99.8126C174.482 99.8482 174.587 99.8914 174.689 99.9341C174.739 99.955 174.788 99.9754 174.837 99.9938C174.847 99.9913 174.856 99.9894 174.866 99.9881C174.925 99.9786 175.009 99.9747 175.067 99.9722C175.088 99.9716 175.11 99.969 175.134 99.9665C175.194 99.9595 175.261 99.9519 175.344 99.9684C175.435 99.9862 175.526 99.9964 175.623 100.007C175.725 100.017 175.83 100.029 175.937 100.05C175.98 100.059 176.023 100.071 176.064 100.082C176.128 100.099 176.189 100.115 176.246 100.118C176.274 100.12 176.302 100.121 176.328 100.122C176.431 100.125 176.536 100.129 176.659 100.176C176.702 100.192 176.742 100.209 176.779 100.226C176.85 100.257 176.911 100.284 176.981 100.297C177.089 100.316 177.206 100.34 177.325 100.386C177.43 100.427 177.538 100.464 177.651 100.504C177.835 100.567 178.023 100.632 178.201 100.715C178.458 100.835 178.698 100.99 178.93 101.139C178.993 101.179 179.057 101.221 179.12 101.261C179.165 101.288 179.211 101.316 179.255 101.343C179.378 101.415 179.504 101.491 179.623 101.592C179.836 101.775 180.002 101.901 180.18 102.013C180.566 102.259 180.887 102.588 181.197 102.906C181.266 102.977 181.337 103.049 181.407 103.119C181.798 103.511 182.145 103.925 182.496 104.35L182.643 104.528L182.425 104.606C181.96 104.771 181.584 105.128 181.394 105.585C181.203 106.042 181.215 106.562 181.426 107.01L181.493 107.151L181.354 107.223C180.647 107.588 180.169 108.25 180.042 109.037C179.915 109.827 180.161 110.605 180.717 111.173L180.816 111.274L180.729 111.386C180.405 111.799 180.264 112.313 180.33 112.832C180.396 113.353 180.662 113.814 181.078 114.132L181.24 114.256L181.082 114.386C181.009 114.446 180.94 114.504 180.874 114.561C180.422 114.942 180.033 115.27 178.901 115.749C178.663 115.849 178.376 115.96 178.05 116.019C177.947 116.038 177.845 116.065 177.737 116.093C177.615 116.124 177.488 116.157 177.358 116.178C177.311 116.186 177.266 116.192 177.222 116.196C176.728 116.239 176.23 116.236 175.748 116.232H175.69C175.088 116.228 174.471 116.151 173.801 115.997C173.234 115.867 172.641 115.684 171.99 115.437C171.573 115.279 171.172 115.089 170.785 114.905C170.613 114.823 170.435 114.739 170.258 114.658C169.714 114.41 169.244 114.032 168.791 113.667C168.745 113.629 168.698 113.592 168.651 113.554C168.173 113.171 167.744 112.689 167.377 112.123C167.057 111.631 166.773 111.057 166.532 110.417C165.984 108.963 166.013 108.285 166.046 107.499C166.051 107.377 166.056 107.251 166.059 107.121C166.074 106.503 166.179 105.864 166.364 105.271C166.407 105.134 166.462 105.004 166.515 104.878C166.558 104.778 166.597 104.683 166.632 104.586C166.691 104.416 166.768 104.215 166.884 104.014C167.015 103.788 167.163 103.531 167.349 103.309C167.451 103.188 167.519 103.089 167.59 102.985C167.785 102.698 167.987 102.401 168.892 101.681C169.74 101.007 170.647 100.488 171.665 100.094C171.732 100.068 171.801 100.039 171.867 100.011C172.06 99.9302 172.259 99.8463 172.476 99.8062C172.576 99.7878 172.651 99.7744 172.721 99.763L172.722 99.7643Z" fill="#FF6B00"/>
<path d="M221.158 108.815C221.144 109.153 221.112 109.44 220.997 109.824C220.988 109.853 220.98 109.882 220.971 109.911C220.922 110.081 220.87 110.255 220.779 110.42C220.721 110.523 220.658 110.617 220.596 110.709C220.566 110.754 220.536 110.798 220.508 110.842C220.508 110.851 220.508 110.861 220.508 110.871C220.505 110.93 220.492 111.013 220.483 111.071C220.479 111.092 220.477 111.115 220.475 111.137C220.47 111.197 220.464 111.265 220.431 111.343C220.395 111.428 220.367 111.516 220.337 111.609C220.306 111.707 220.274 111.807 220.231 111.907C220.213 111.948 220.194 111.988 220.175 112.025C220.145 112.085 220.117 112.142 220.102 112.196C220.095 112.223 220.088 112.25 220.082 112.276C220.058 112.376 220.033 112.479 219.963 112.589C219.938 112.629 219.913 112.663 219.89 112.697C219.845 112.76 219.806 112.814 219.78 112.88C219.738 112.983 219.692 113.092 219.623 113.199C219.561 113.294 219.503 113.392 219.441 113.495C219.343 113.662 219.241 113.834 219.124 113.991C218.954 114.22 218.755 114.424 218.562 114.621C218.51 114.674 218.456 114.729 218.405 114.783C218.369 114.821 218.332 114.861 218.297 114.899C218.201 115.004 218.102 115.113 217.979 115.209C217.757 115.38 217.601 115.518 217.455 115.669C217.136 115.999 216.75 116.247 216.376 116.487C216.293 116.541 216.207 116.595 216.125 116.65C215.662 116.955 215.187 117.211 214.7 117.47L214.496 117.578L214.464 117.349C214.396 116.861 214.121 116.421 213.712 116.143C213.302 115.864 212.791 115.771 212.31 115.888L212.159 115.925L212.116 115.775C211.9 115.009 211.348 114.408 210.601 114.125C209.853 113.843 209.042 113.928 208.373 114.359L208.254 114.436L208.163 114.328C207.823 113.928 207.349 113.686 206.826 113.647C206.303 113.607 205.798 113.774 205.403 114.118L205.249 114.253L205.154 114.072C205.11 113.989 205.066 113.909 205.024 113.832C204.742 113.314 204.498 112.866 204.257 111.662C204.206 111.408 204.155 111.105 204.162 110.774C204.164 110.669 204.159 110.565 204.153 110.453C204.147 110.327 204.14 110.196 204.145 110.065C204.147 110.016 204.15 109.971 204.155 109.927C204.211 109.435 204.315 108.947 204.415 108.475L204.427 108.419C204.553 107.83 204.752 107.24 205.037 106.615C205.278 106.085 205.576 105.542 205.949 104.953C206.188 104.576 206.454 104.222 206.712 103.879C206.827 103.727 206.946 103.57 207.06 103.413C207.412 102.929 207.876 102.545 208.326 102.175C208.372 102.136 208.418 102.098 208.464 102.06C208.936 101.668 209.494 101.345 210.121 101.099C210.668 100.884 211.287 100.721 211.962 100.614C213.496 100.369 214.156 100.533 214.919 100.723C215.037 100.752 215.159 100.783 215.286 100.812C215.887 100.95 216.493 101.182 217.037 101.482C217.163 101.551 217.279 101.632 217.392 101.709C217.482 101.771 217.566 101.829 217.655 101.882C217.809 101.974 217.99 102.089 218.164 102.244C218.36 102.418 218.582 102.615 218.761 102.841C218.859 102.965 218.943 103.051 219.031 103.142C219.273 103.391 219.523 103.649 220.047 104.679C220.537 105.645 220.864 106.638 221.046 107.714C221.058 107.785 221.073 107.858 221.087 107.929C221.128 108.134 221.17 108.345 221.165 108.567C221.163 108.668 221.161 108.745 221.158 108.815H221.158Z" fill="#FF6B00"/>
<path d="M185.966 101.542C185.827 101.234 185.726 100.964 185.657 100.569C185.652 100.539 185.646 100.51 185.64 100.48C185.608 100.306 185.576 100.127 185.584 99.9398C185.589 99.8216 185.603 99.7084 185.617 99.599C185.624 99.5449 185.631 99.4928 185.636 99.44C185.632 99.4318 185.628 99.4229 185.623 99.4133C185.598 99.3593 185.573 99.2791 185.556 99.2238C185.549 99.2028 185.541 99.1825 185.532 99.1602C185.51 99.1043 185.485 99.0413 185.479 98.9561C185.473 98.8645 185.459 98.7736 185.444 98.677C185.428 98.5759 185.411 98.4709 185.404 98.3628C185.401 98.3177 185.401 98.2744 185.401 98.2318C185.401 98.1651 185.401 98.1021 185.39 98.0468C185.384 98.0195 185.378 97.9921 185.371 97.966C185.348 97.8668 185.324 97.7638 185.336 97.6328C185.341 97.5864 185.347 97.5444 185.353 97.5037C185.365 97.4274 185.375 97.3613 185.369 97.2907C185.36 97.1807 185.352 97.0618 185.366 96.9353C185.378 96.8227 185.387 96.7095 185.395 96.5893C185.408 96.396 185.422 96.197 185.456 96.0037C185.505 95.7239 185.591 95.4517 185.675 95.1891C185.697 95.1185 185.721 95.0454 185.743 94.9736C185.759 94.9233 185.773 94.8718 185.787 94.8216C185.825 94.6842 185.865 94.5424 185.933 94.4013C186.054 94.1488 186.132 93.9555 186.194 93.7546C186.331 93.3171 186.564 92.9222 186.791 92.5394C186.841 92.4548 186.892 92.3671 186.942 92.2812C187.218 91.8017 187.527 91.3585 187.846 90.9083L187.98 90.7201L188.111 90.9102C188.392 91.3159 188.834 91.5855 189.326 91.6504C189.817 91.7153 190.315 91.5684 190.692 91.2479L190.811 91.1468L190.917 91.2619C191.454 91.8494 192.218 92.1381 193.011 92.0555C193.806 91.9722 194.494 91.5315 194.897 90.846L194.969 90.7239L195.099 90.7792C195.582 90.984 196.115 90.9865 196.599 90.7875C197.084 90.5878 197.46 90.2114 197.658 89.7262L197.736 89.5374L197.902 89.6556C197.979 89.7103 198.053 89.7618 198.125 89.8114C198.61 90.1478 199.03 90.4378 199.786 91.4056C199.945 91.6091 200.128 91.8577 200.27 92.1566C200.315 92.2507 200.367 92.3416 200.422 92.4389C200.485 92.5489 200.55 92.6627 200.604 92.7823C200.624 92.8262 200.641 92.8681 200.656 92.9095C200.827 93.3749 200.954 93.8569 201.076 94.3237L201.091 94.379C201.244 94.9615 201.331 95.5776 201.357 96.2638C201.38 96.8456 201.357 97.4656 201.289 98.1587C201.245 98.6019 201.166 99.0381 201.089 99.4604C201.055 99.648 201.02 99.8413 200.988 100.033C200.891 100.623 200.648 101.175 200.413 101.708C200.389 101.763 200.365 101.818 200.341 101.872C200.096 102.434 199.743 102.974 199.293 103.476C198.9 103.913 198.421 104.338 197.866 104.737C196.605 105.645 195.942 105.794 195.175 105.967C195.056 105.994 194.933 106.022 194.807 106.053C194.207 106.2 193.561 106.264 192.941 106.241C192.797 106.235 192.657 106.216 192.522 106.198C192.414 106.183 192.312 106.169 192.209 106.161C192.03 106.148 191.816 106.127 191.591 106.067C191.339 105.999 191.052 105.923 190.79 105.801C190.647 105.735 190.534 105.695 190.414 105.654C190.086 105.54 189.747 105.422 188.816 104.737C187.943 104.094 187.206 103.354 186.56 102.474C186.517 102.417 186.471 102.358 186.427 102.302C186.299 102.137 186.166 101.966 186.071 101.767C186.027 101.675 185.994 101.606 185.965 101.542L185.966 101.542Z" fill="#FF6B00"/>
</g>
<defs>
<filter id="filter0_f_6_3292" x="-150" y="-150" width="718" height="514" filterUnits="userSpaceOnUse" color-interpolation-filters="sRGB">
<feFlood flood-opacity="0" result="BackgroundImageFix"/>
<feBlend mode="normal" in="SourceGraphic" in2="BackgroundImageFix" result="shape"/>
<feGaussianBlur stdDeviation="75" result="effect1_foregroundBlur_6_3292"/>
</filter>
<clipPath id="clip0_6_3292">
<rect width="418" height="214" fill="white"/>
</clipPath>
</defs>
</svg>
